<svg xmlns="http://www.w3.org/2000/svg" width="800" height="400" viewBox="0 0 800 400">
  <defs>
    <radialGradient id="bg" cx="40%" cy="40%" r="75%">
      <stop offset="0%" stop-color="#6A1B9A"/>
      <stop offset="55%" stop-color="#4A148C"/>
      <stop offset="100%" stop-color="#1A0535"/>
    </radialGradient>
    <radialGradient id="glow" cx="50%" cy="50%" r="50%">
      <stop offset="0%" stop-color="#CE93D8" stop-opacity="0.25"/>
      <stop offset="100%" stop-color="#CE93D8" stop-opacity="0"/>
    </radialGradient>
  </defs>
  <rect width="800" height="400" fill="url(#bg)"/>
  <circle cx="400" cy="180" r="200" fill="url(#glow)"/>
  <!-- Mortar & Pestle -->
  <ellipse cx="300" cy="295" rx="70" ry="20" fill="#4A148C" opacity="0.9"/>
  <path d="M240 260 Q230 295 240 310 Q260 325 300 325 Q340 325 360 310 Q370 295 360 260 Z" fill="#6A1B9A" opacity="0.9"/>
  <ellipse cx="300" cy="260" rx="60" ry="16" fill="#7B1FA2" opacity="0.9"/>
  <!-- Pestle -->
  <rect x="310" y="210" width="15" height="70" rx="7" fill="#CE93D8" opacity="0.8" transform="rotate(-20 317 245)"/>
  <!-- Herb piles in mortar -->
  <ellipse cx="290" cy="270" rx="35" ry="10" fill="#2E7D32" opacity="0.7"/>
  <!-- Flowing herbs -->
  <circle cx="500" cy="140" r="35" fill="#2E7D32" opacity="0.35"/>
  <circle cx="560" cy="190" r="22" fill="#388E3C" opacity="0.3"/>
  <circle cx="530" cy="240" r="18" fill="#1B5E20" opacity="0.4"/>
  <!-- Turmeric powder -->
  <ellipse cx="450" cy="300" rx="40" ry="12" fill="#F57F17" opacity="0.5"/>
  <text x="400" y="360" text-anchor="middle" font-family="Georgia,serif" font-size="22" fill="#CE93D8" opacity="0.85" letter-spacing="3">NIRGUNDI · SHALLAKI · AYURVEDA</text>
</svg>
