<svg xmlns="http://www.w3.org/2000/svg" width="800" height="400" viewBox="0 0 800 400">
  <defs>
    <radialGradient id="bg" cx="30%" cy="40%" r="70%">
      <stop offset="0%" stop-color="#1565C0"/>
      <stop offset="60%" stop-color="#0D47A1"/>
      <stop offset="100%" stop-color="#071E3D"/>
    </radialGradient>
    <radialGradient id="glow" cx="50%" cy="50%" r="50%">
      <stop offset="0%" stop-color="#42A5F5" stop-opacity="0.3"/>
      <stop offset="100%" stop-color="#42A5F5" stop-opacity="0"/>
    </radialGradient>
  </defs>
  <rect width="800" height="400" fill="url(#bg)"/>
  <circle cx="400" cy="200" r="200" fill="url(#glow)"/>
  <!-- Steam lines -->
  <path d="M280 280 Q285 250 280 220 Q275 190 280 160" stroke="#90CAF9" stroke-width="3" fill="none" stroke-linecap="round" opacity="0.6"/>
  <path d="M300 290 Q305 255 300 220 Q295 185 300 150" stroke="#90CAF9" stroke-width="3" fill="none" stroke-linecap="round" opacity="0.5"/>
  <path d="M320 285 Q325 252 320 219 Q315 186 320 153" stroke="#90CAF9" stroke-width="3" fill="none" stroke-linecap="round" opacity="0.7"/>
  <!-- Cup -->
  <ellipse cx="300" cy="300" rx="60" ry="15" fill="#1976D2" opacity="0.8"/>
  <rect x="250" y="240" width="100" height="65" rx="8" fill="#1E88E5" opacity="0.9"/>
  <ellipse cx="300" cy="240" rx="50" ry="12" fill="#42A5F5" opacity="0.8"/>
  <!-- Herbs floating -->
  <circle cx="500" cy="150" r="30" fill="#2E7D32" opacity="0.4"/>
  <circle cx="550" cy="200" r="20" fill="#388E3C" opacity="0.3"/>
  <circle cx="480" cy="220" r="15" fill="#43A047" opacity="0.35"/>
  <!-- Spice dots -->
  <circle cx="420" cy="280" r="5" fill="#FF8F00" opacity="0.7"/>
  <circle cx="440" cy="270" r="4" fill="#FF8F00" opacity="0.6"/>
  <circle cx="460" cy="285" r="6" fill="#8D6E63" opacity="0.7"/>
  <circle cx="430" cy="300" r="4" fill="#8D6E63" opacity="0.5"/>
  <!-- Text label -->
  <text x="400" y="355" text-anchor="middle" font-family="Georgia,serif" font-size="22" fill="#90CAF9" opacity="0.85" letter-spacing="3">KADHA · HERBAL DECOCTION</text>
</svg>
